# Blender v2.90.1 OBJ File: 'untitled.blend'
# www.blender.org
mtllib road.mtl
o road.002_Plane.002
v -2.565521 0.000000 -1.229075
v -2.565521 0.000000 1.229874
v 2.553712 0.000000 1.229874
v 2.553712 0.000000 -1.229075
v -2.001861 0.000000 1.692334
v 1.952469 0.000000 1.692334
v 1.952469 0.000000 -1.696046
v -2.001861 0.000000 -1.696046
v 1.952469 0.000000 1.229874
v -2.001861 0.000000 1.229874
v 1.952469 0.000000 -1.229075
v -2.001861 0.000000 -1.229075
v -0.328795 0.000000 1.692334
v 0.309312 0.000000 1.692334
v 0.309312 0.000000 -1.696046
v -0.328795 0.000000 -1.696046
v 0.309312 0.000000 1.229874
v -0.328795 0.000000 1.229874
v 0.309312 0.000000 -1.229075
v -0.328795 0.000000 -1.229075
v -2.565521 0.000000 0.089107
v -2.565521 0.000000 0.594504
v 2.553712 0.000000 0.594504
v 2.553712 0.000000 0.089107
v -2.001861 0.000000 0.594504
v -2.001861 0.000000 0.089107
v 1.952469 0.000000 0.594504
v 1.952469 0.000000 0.089107
v -0.328795 0.000000 0.594504
v -0.328795 0.000000 0.089107
v 0.309312 0.000000 0.594504
v 0.309312 0.000000 0.089107
v -1.078639 0.000000 -1.696046
v -1.078639 0.000000 1.229874
v -1.078639 0.000000 -1.229075
v -1.078639 0.000000 1.692334
v -1.078639 0.000000 0.594504
v -1.078639 0.000000 0.089107
v 2.553712 0.000000 -0.557600
v -2.001861 0.000000 -0.557600
v 1.952469 0.000000 -0.557600
v -0.328795 0.000000 -0.557600
v 0.309312 0.000000 -0.557600
v -2.565521 0.000000 -0.557600
v -1.078639 0.000000 -0.557600
v 2.253091 0.000000 1.692334
v 2.253091 0.000000 -1.696046
v 2.253091 0.000000 1.229874
v 2.253091 0.000000 -1.229075
v 2.253091 0.000000 0.594504
v 2.253091 0.000000 0.089107
v 2.253091 0.000000 -0.557600
v -2.283691 0.000000 -1.696046
v -2.283691 0.000000 1.229874
v -2.283691 0.000000 -1.229075
v -2.283691 0.000000 1.692334
v -2.283691 0.000000 0.594504
v -2.283691 0.000000 0.089107
v -2.283691 0.000000 -0.557600
v 2.553712 0.000000 -1.462560
v -2.565521 0.000000 -1.462560
v -2.001861 0.000000 -1.462560
v 1.952469 0.000000 -1.462560
v -0.328795 0.000000 -1.462560
v 0.309312 0.000000 -1.462560
v -1.078639 0.000000 -1.462560
v 2.253091 0.000000 -1.462560
v -2.283691 0.000000 -1.462560
v -2.565521 0.000000 1.461104
v 2.553712 0.000000 1.461104
v -2.001861 0.000000 1.461104
v 1.952469 0.000000 1.461104
v -0.328795 0.000000 1.461104
v 0.309312 0.000000 1.461104
v -1.078639 0.000000 1.461104
v 2.253091 0.000000 1.461104
v -2.283691 0.000000 1.461104
v -2.565521 0.000000 0.341806
v 2.553712 0.000000 0.341806
v -2.001861 0.000000 0.341806
v 1.952469 0.000000 0.341806
v -0.328795 0.000000 0.341806
v 0.309312 0.000000 0.341806
v -1.078639 0.000000 0.341806
v 2.253091 0.000000 0.341806
v -2.283691 0.000000 0.341806
v -0.009742 0.000000 1.692334
v -0.009742 0.000000 -1.696046
v -0.009742 0.000000 1.229874
v -0.009742 0.000000 -1.229075
v -0.009742 0.000000 0.594504
v -0.009742 0.000000 0.089107
v -0.009742 0.000000 -0.557600
v -0.009742 0.000000 -1.462560
v -0.009742 0.000000 1.461104
v -0.009742 0.000000 0.341806
v -1.326169 0.000000 -1.696046
v -1.326169 0.000000 1.229874
v -1.326169 0.000000 -1.229075
v -1.326169 0.000000 0.594504
v -1.326169 0.000000 0.089107
v -1.326169 0.000000 1.692334
v -1.326169 0.000000 -0.557600
v -1.326169 0.000000 -1.462560
v -1.326169 0.000000 1.461104
v -1.326169 0.000000 0.341806
v -2.565521 0.000000 -0.296846
v 2.553712 0.000000 -0.296846
v -2.001861 0.000000 -0.296846
v 1.952469 0.000000 -0.296846
v -0.328795 0.000000 -0.296846
v 0.309312 0.000000 -0.296846
v -1.078639 0.000000 -0.296846
v 2.253091 0.000000 -0.296846
v -2.283691 0.000000 -0.296846
v -0.009742 0.000000 -0.296846
v -1.326169 0.000000 -0.296846
v -1.826181 0.000000 -1.696046
v -1.826181 0.000000 1.229874
v -1.826181 0.000000 -1.229075
v -1.826181 0.000000 0.594504
v -1.826181 0.000000 0.089107
v -1.826181 0.000000 -0.557600
v -1.826181 0.000000 -1.462560
v -1.826181 0.000000 1.461104
v -1.826181 0.000000 0.341806
v -1.826181 0.000000 1.692334
v -1.826181 0.000000 -0.296846
v 2.553712 0.000000 -0.980854
v -2.001861 0.000000 -0.980854
v 1.952469 0.000000 -0.980854
v -0.328795 0.000000 -0.980854
v 0.309312 0.000000 -0.980854
v -1.078639 0.000000 -0.980854
v -2.565521 0.000000 -0.980854
v 2.253091 0.000000 -0.980854
v -2.283691 0.000000 -0.980854
v -0.009742 0.000000 -0.980854
v -1.326169 0.000000 -0.980854
v -2.283782 0.000000 1.692334
v -2.565521 0.000000 1.461189
v -2.327856 0.000000 1.689488
v -2.370844 0.000000 1.681021
v -2.411689 0.000000 1.667140
v -2.449384 0.000000 1.648189
v -2.483001 0.000000 1.624633
v -2.511713 0.000000 1.597052
v -2.534813 0.000000 1.566126
v -2.551731 0.000000 1.532616
v -2.562052 0.000000 1.497348
v 2.553712 0.000000 1.461189
v 2.253182 0.000000 1.692334
v 2.550012 0.000000 1.497348
v 2.539003 0.000000 1.532616
v 2.520956 0.000000 1.566126
v 2.496315 0.000000 1.597052
v 2.465689 0.000000 1.624633
v 2.429829 0.000000 1.648189
v 2.389620 0.000000 1.667140
v 2.346051 0.000000 1.681021
v 2.300195 0.000000 1.689488
v -2.565521 0.000000 -1.462645
v -2.283782 0.000000 -1.696046
v -2.562052 0.000000 -1.499157
v -2.551731 0.000000 -1.534770
v -2.534813 0.000000 -1.568607
v -2.511713 0.000000 -1.599835
v -2.483001 0.000000 -1.627684
v -2.449384 0.000000 -1.651471
v -2.411689 0.000000 -1.670607
v -2.370844 0.000000 -1.684623
v -2.327856 0.000000 -1.693173
v 2.253182 0.000000 -1.696046
v 2.553712 0.000000 -1.462645
v 2.300195 0.000000 -1.693173
v 2.346051 0.000000 -1.684623
v 2.389620 0.000000 -1.670607
v 2.429829 0.000000 -1.651471
v 2.465689 0.000000 -1.627684
v 2.496315 0.000000 -1.599835
v 2.520956 0.000000 -1.568607
v 2.539003 0.000000 -1.534770
v 2.550012 0.000000 -1.499157
vt 1.000000 0.049878
vt 0.721411 0.099757
vt 0.721411 0.049878
vt 1.000000 0.414732
vt 0.721411 0.433090
vt 0.721411 0.414732
vt 0.109489 0.414732
vt 0.054745 0.433090
vt 0.054745 0.414732
vt 0.109489 0.049878
vt 0.054745 0.099757
vt 0.054745 0.049878
vt 0.442822 0.049878
vt 0.299304 0.099757
vt 0.299304 0.049878
vt 0.109489 0.716545
vt 0.054745 1.000000
vt 0.054745 0.716545
vt 0.442822 0.716545
vt 0.299304 1.000000
vt 0.299304 0.716545
vt 0.188193 0.716545
vt 0.141285 1.000000
vt 0.141285 0.716545
vt 0.243748 1.000000
vt 0.243748 0.716545
vt 0.188193 0.049878
vt 0.141285 0.099757
vt 0.141285 0.049878
vt 0.243748 0.099757
vt 0.243748 0.049878
vt 0.299304 0.414732
vt 0.243748 0.433090
vt 0.243748 0.414732
vt 0.243748 0.194676
vt 0.299304 0.250231
vt 0.243748 0.305787
vt 0.243748 0.250231
vt 0.188193 0.250231
vt 0.141285 0.305787
vt 0.141285 0.250231
vt 0.442822 0.250231
vt 0.299304 0.305787
vt 0.109489 0.099757
vt 0.054745 0.194676
vt 0.109489 0.250231
vt 0.054745 0.305787
vt 0.054745 0.250231
vt 1.000000 0.099757
vt 0.721411 0.194676
vt 1.000000 0.250231
vt 0.721411 0.305787
vt 0.721411 0.250231
vt 0.132760 0.305787
vt 0.132760 0.250231
vt 0.132760 0.099757
vt 0.132760 0.049878
vt 0.132760 1.000000
vt 0.132760 0.716545
vt 0.141285 0.348149
vt 0.132760 0.368838
vt 0.132760 0.348149
vt 0.299304 0.348149
vt 0.243748 0.368838
vt 0.243748 0.348149
vt 0.109489 0.348149
vt 0.054745 0.368838
vt 0.054745 0.348149
vt 1.000000 0.348149
vt 0.721411 0.368838
vt 0.721411 0.348149
vt 0.442822 0.368838
vt 0.442822 0.348149
vt 0.442822 0.305787
vt 0.442822 0.194676
vt 0.442822 0.099757
vt 0.442822 0.433090
vt 0.442822 0.414732
vt 0.721411 0.716545
vt 0.442822 1.000000
vt 0.000000 0.368838
vt 0.000000 0.348149
vt 0.000000 0.305787
vt 0.000000 0.250231
vt 0.000000 0.194676
vt 0.000000 0.099757
vt 0.765064 0.996511
vt 0.721496 1.000000
vt 0.000000 0.049878
vt 0.000000 0.433090
vt 0.000000 0.414732
vt 0.000000 0.716545
vt 0.141285 0.433090
vt 0.132760 0.433090
vt 0.299304 0.433090
vt 0.188193 0.433090
vt 0.109489 0.433090
vt 1.000000 0.433090
vt 1.000000 0.049860
vt 0.721411 0.000000
vt 0.442822 0.000000
vt 0.141285 0.000000
vt 0.132760 0.000000
vt 0.299304 0.000000
vt 0.243748 0.000000
vt 0.188193 0.000000
vt 0.109489 0.000000
vt 0.054745 0.000000
vt 0.000674 0.760974
vt 0.000000 0.716648
vt 0.141285 0.194676
vt 0.132760 0.194676
vt 1.000000 0.194676
vt 0.109489 0.194676
vt 0.299304 0.194676
vt 0.188193 0.194676
vt 0.188193 0.368838
vt 0.188193 0.348149
vt 0.188193 0.305787
vt 0.188193 0.099757
vt 0.188193 0.414732
vt 0.188193 1.000000
vt 0.115540 0.250231
vt 0.115540 0.194676
vt 0.115540 0.049878
vt 0.115540 0.000000
vt 0.115540 0.716545
vt 0.115540 0.433090
vt 0.115540 0.368838
vt 0.115540 0.348149
vt 0.115540 1.000000
vt 0.115540 0.099757
vt 0.115540 0.305787
vt 1.000000 0.305787
vt 0.109489 0.305787
vt 0.109489 1.000000
vt 0.141285 0.368838
vt 0.132760 0.414732
vt 0.299304 0.368838
vt 0.109489 0.368838
vt 1.000000 0.368838
vt 0.054727 0.000000
vt 0.721411 1.000000
vt 1.000000 0.716545
vt 0.996571 0.760974
vt 1.000000 0.716648
vt 0.986369 0.804208
vt 0.969645 0.845287
vt 0.946810 0.883198
vt 0.918428 0.917008
vt 0.885197 0.945884
vt 0.847934 0.969116
vt 0.807559 0.986132
vt 0.721496 0.000000
vt 0.765064 0.000614
vt 0.807559 0.002440
vt 0.847934 0.005434
vt 0.885197 0.009522
vt 0.918428 0.014604
vt 0.946810 0.020553
vt 0.969645 0.027224
vt 0.986369 0.034452
vt 0.996571 0.042060
vt 0.054727 1.000000
vt 0.046166 0.996511
vt 0.037815 0.986132
vt 0.029881 0.969116
vt 0.022559 0.945884
vt 0.016029 0.917008
vt 0.010452 0.883198
vt 0.005965 0.845287
vt 0.002679 0.804208
vt 0.141285 0.414732
vt 0.000000 0.049860
vt 0.000674 0.042060
vt 0.002679 0.034452
vt 0.005965 0.027224
vt 0.010452 0.020553
vt 0.016029 0.014604
vt 0.022559 0.009522
vt 0.029881 0.005434
vt 0.037815 0.002440
vt 0.046166 0.000614
vn 0.0000 1.0000 0.0000
usemtl Material.024
s off
f 70/1/1 48/2/1 76/3/1
f 129/4/1 49/5/1 136/6/1
f 130/7/1 55/8/1 137/9/1
f 71/10/1 54/11/1 77/12/1
f 72/13/1 17/14/1 74/15/1
f 62/16/1 53/17/1 68/18/1
f 63/19/1 15/20/1 65/21/1
f 64/22/1 33/23/1 66/24/1
f 65/21/1 88/25/1 94/26/1
f 73/27/1 34/28/1 75/29/1
f 74/15/1 89/30/1 95/31/1
f 133/32/1 90/33/1 138/34/1
f 17/14/1 91/35/1 89/30/1
f 83/36/1 92/37/1 96/38/1
f 82/39/1 38/40/1 84/41/1
f 81/42/1 32/43/1 83/36/1
f 10/44/1 57/45/1 54/11/1
f 80/46/1 58/47/1 86/48/1
f 3/49/1 50/50/1 48/2/1
f 79/51/1 51/52/1 85/53/1
f 84/41/1 101/54/1 106/55/1
f 75/29/1 98/56/1 105/57/1
f 66/24/1 97/58/1 104/59/1
f 113/60/1 103/61/1 117/62/1
f 112/63/1 93/64/1 116/65/1
f 109/66/1 59/67/1 115/68/1
f 108/69/1 52/70/1 114/71/1
f 114/71/1 41/72/1 110/73/1
f 85/53/1 28/74/1 81/42/1
f 48/2/1 27/75/1 9/76/1
f 136/6/1 11/77/1 131/78/1
f 76/3/1 9/76/1 72/13/1
f 67/79/1 7/80/1 63/19/1
f 115/68/1 44/81/1 107/82/1
f 86/48/1 21/83/1 78/84/1
f 54/11/1 22/85/1 2/86/1
f 175/87/1 173/88/1 67/79/1
f 77/12/1 2/86/1 69/89/1
f 137/9/1 1/90/1 135/91/1
f 55/8/1 61/92/1 1/90/1
f 49/5/1 63/19/1 11/77/1
f 35/93/1 104/59/1 99/94/1
f 19/95/1 94/26/1 90/33/1
f 20/96/1 66/24/1 35/93/1
f 11/77/1 65/21/1 19/95/1
f 12/97/1 68/18/1 55/8/1
f 4/98/1 67/79/1 49/5/1
f 151/99/1 70/1/1 76/3/1
f 46/100/1 72/13/1 6/101/1
f 36/102/1 105/57/1 102/103/1
f 14/104/1 95/31/1 87/105/1
f 13/106/1 75/29/1 36/102/1
f 6/101/1 74/15/1 14/104/1
f 5/107/1 77/12/1 56/108/1
f 164/109/1 162/110/1 68/18/1
f 57/45/1 78/84/1 22/85/1
f 50/50/1 81/42/1 27/75/1
f 37/111/1 106/55/1 100/112/1
f 23/113/1 85/53/1 50/50/1
f 25/114/1 86/48/1 57/45/1
f 27/75/1 83/36/1 31/115/1
f 29/116/1 84/41/1 37/111/1
f 31/115/1 96/38/1 91/35/1
f 91/35/1 82/39/1 29/116/1
f 87/105/1 73/27/1 13/106/1
f 90/33/1 64/22/1 20/96/1
f 116/65/1 42/117/1 111/118/1
f 96/38/1 30/119/1 82/39/1
f 89/30/1 29/116/1 18/120/1
f 138/34/1 20/96/1 132/121/1
f 95/31/1 18/120/1 73/27/1
f 94/26/1 16/122/1 64/22/1
f 100/112/1 126/123/1 121/124/1
f 102/103/1 125/125/1 127/126/1
f 99/94/1 124/127/1 120/128/1
f 117/62/1 123/129/1 128/130/1
f 104/59/1 118/131/1 124/127/1
f 105/57/1 119/132/1 125/125/1
f 106/55/1 122/133/1 126/123/1
f 92/37/1 111/118/1 30/119/1
f 58/47/1 107/82/1 21/83/1
f 51/52/1 110/73/1 28/74/1
f 24/134/1 114/71/1 51/52/1
f 26/135/1 115/68/1 58/47/1
f 32/43/1 116/65/1 92/37/1
f 38/40/1 117/62/1 101/54/1
f 126/123/1 26/135/1 80/46/1
f 125/125/1 10/44/1 71/10/1
f 124/127/1 8/136/1 62/16/1
f 120/128/1 62/16/1 12/97/1
f 127/126/1 71/10/1 5/107/1
f 121/124/1 80/46/1 25/114/1
f 93/64/1 132/121/1 42/117/1
f 59/67/1 135/91/1 44/81/1
f 52/70/1 131/78/1 41/72/1
f 45/137/1 139/138/1 103/61/1
f 43/139/1 138/34/1 93/64/1
f 40/140/1 137/9/1 59/67/1
f 39/141/1 136/6/1 52/70/1
f 140/142/1 56/108/1 77/12/1
f 70/1/1 3/49/1 48/2/1
f 129/4/1 4/98/1 49/5/1
f 130/7/1 12/97/1 55/8/1
f 71/10/1 10/44/1 54/11/1
f 72/13/1 9/76/1 17/14/1
f 62/16/1 8/136/1 53/17/1
f 63/19/1 7/80/1 15/20/1
f 64/22/1 16/122/1 33/23/1
f 65/21/1 15/20/1 88/25/1
f 73/27/1 18/120/1 34/28/1
f 74/15/1 17/14/1 89/30/1
f 133/32/1 19/95/1 90/33/1
f 17/14/1 31/115/1 91/35/1
f 83/36/1 32/43/1 92/37/1
f 82/39/1 30/119/1 38/40/1
f 81/42/1 28/74/1 32/43/1
f 10/44/1 25/114/1 57/45/1
f 80/46/1 26/135/1 58/47/1
f 3/49/1 23/113/1 50/50/1
f 79/51/1 24/134/1 51/52/1
f 84/41/1 38/40/1 101/54/1
f 75/29/1 34/28/1 98/56/1
f 66/24/1 33/23/1 97/58/1
f 113/60/1 45/137/1 103/61/1
f 112/63/1 43/139/1 93/64/1
f 109/66/1 40/140/1 59/67/1
f 108/69/1 39/141/1 52/70/1
f 114/71/1 52/70/1 41/72/1
f 85/53/1 51/52/1 28/74/1
f 48/2/1 50/50/1 27/75/1
f 136/6/1 49/5/1 11/77/1
f 76/3/1 48/2/1 9/76/1
f 67/79/1 47/143/1 7/80/1
f 115/68/1 59/67/1 44/81/1
f 86/48/1 58/47/1 21/83/1
f 54/11/1 57/45/1 22/85/1
f 47/143/1 67/79/1 173/88/1
f 67/79/1 60/144/1 183/145/1
f 60/144/1 174/146/1 183/145/1
f 183/145/1 182/147/1 67/79/1
f 182/147/1 181/148/1 67/79/1
f 181/148/1 180/149/1 67/79/1
f 180/149/1 179/150/1 67/79/1
f 179/150/1 178/151/1 67/79/1
f 178/151/1 177/152/1 67/79/1
f 177/152/1 176/153/1 67/79/1
f 176/153/1 175/87/1 67/79/1
f 77/12/1 54/11/1 2/86/1
f 137/9/1 55/8/1 1/90/1
f 55/8/1 68/18/1 61/92/1
f 49/5/1 67/79/1 63/19/1
f 35/93/1 66/24/1 104/59/1
f 19/95/1 65/21/1 94/26/1
f 20/96/1 64/22/1 66/24/1
f 11/77/1 63/19/1 65/21/1
f 12/97/1 62/16/1 68/18/1
f 4/98/1 60/144/1 67/79/1
f 76/3/1 46/100/1 152/154/1
f 152/154/1 161/155/1 76/3/1
f 161/155/1 160/156/1 76/3/1
f 160/156/1 159/157/1 76/3/1
f 159/157/1 158/158/1 76/3/1
f 158/158/1 157/159/1 76/3/1
f 157/159/1 156/160/1 76/3/1
f 156/160/1 155/161/1 76/3/1
f 155/161/1 154/162/1 76/3/1
f 154/162/1 153/163/1 76/3/1
f 153/163/1 151/99/1 76/3/1
f 46/100/1 76/3/1 72/13/1
f 36/102/1 75/29/1 105/57/1
f 14/104/1 74/15/1 95/31/1
f 13/106/1 73/27/1 75/29/1
f 6/101/1 72/13/1 74/15/1
f 5/107/1 71/10/1 77/12/1
f 162/110/1 61/92/1 68/18/1
f 68/18/1 53/17/1 163/164/1
f 163/164/1 172/165/1 68/18/1
f 172/165/1 171/166/1 68/18/1
f 171/166/1 170/167/1 68/18/1
f 170/167/1 169/168/1 68/18/1
f 169/168/1 168/169/1 68/18/1
f 168/169/1 167/170/1 68/18/1
f 167/170/1 166/171/1 68/18/1
f 166/171/1 165/172/1 68/18/1
f 165/172/1 164/109/1 68/18/1
f 57/45/1 86/48/1 78/84/1
f 50/50/1 85/53/1 81/42/1
f 37/111/1 84/41/1 106/55/1
f 23/113/1 79/51/1 85/53/1
f 25/114/1 80/46/1 86/48/1
f 27/75/1 81/42/1 83/36/1
f 29/116/1 82/39/1 84/41/1
f 31/115/1 83/36/1 96/38/1
f 91/35/1 96/38/1 82/39/1
f 87/105/1 95/31/1 73/27/1
f 90/33/1 94/26/1 64/22/1
f 116/65/1 93/64/1 42/117/1
f 96/38/1 92/37/1 30/119/1
f 89/30/1 91/35/1 29/116/1
f 138/34/1 90/33/1 20/96/1
f 95/31/1 89/30/1 18/120/1
f 94/26/1 88/25/1 16/122/1
f 100/112/1 106/55/1 126/123/1
f 102/103/1 105/57/1 125/125/1
f 99/94/1 104/59/1 124/127/1
f 117/62/1 103/61/1 123/129/1
f 104/59/1 97/58/1 118/131/1
f 105/57/1 98/56/1 119/132/1
f 106/55/1 101/54/1 122/133/1
f 92/37/1 116/65/1 111/118/1
f 58/47/1 115/68/1 107/82/1
f 51/52/1 114/71/1 110/73/1
f 24/134/1 108/69/1 114/71/1
f 26/135/1 109/66/1 115/68/1
f 32/43/1 112/63/1 116/65/1
f 38/40/1 113/60/1 117/62/1
f 126/123/1 122/133/1 26/135/1
f 125/125/1 119/132/1 10/44/1
f 124/127/1 118/131/1 8/136/1
f 120/128/1 124/127/1 62/16/1
f 127/126/1 125/125/1 71/10/1
f 121/124/1 126/123/1 80/46/1
f 93/64/1 138/34/1 132/121/1
f 59/67/1 137/9/1 135/91/1
f 52/70/1 136/6/1 131/78/1
f 45/137/1 134/173/1 139/138/1
f 43/139/1 133/32/1 138/34/1
f 40/140/1 130/7/1 137/9/1
f 39/141/1 129/4/1 136/6/1
f 69/89/1 141/174/1 77/12/1
f 141/174/1 150/175/1 77/12/1
f 150/175/1 149/176/1 77/12/1
f 149/176/1 148/177/1 77/12/1
f 148/177/1 147/178/1 77/12/1
f 147/178/1 146/179/1 77/12/1
f 146/179/1 145/180/1 77/12/1
f 145/180/1 144/181/1 77/12/1
f 144/181/1 143/182/1 77/12/1
f 143/182/1 142/183/1 77/12/1
f 142/183/1 140/142/1 77/12/1
o Plane.002_Plane.005
v -2.171966 -0.010000 -1.485628
v 2.406909 -0.010000 -1.485628
v -2.171966 -0.010000 1.542025
v 2.406909 -0.010000 1.542025
vt 1.000000 0.000000
vt 0.000000 1.000000
vt 0.000000 0.000000
vt 1.000000 1.000000
vn 0.0000 -1.0000 0.0000
usemtl Material.009
s off
f 185/184/2 186/185/2 184/186/2
f 185/184/2 187/187/2 186/185/2
o yello_line_part_Plane.012
v 1.951629 0.008677 0.327655
v 0.308371 0.008677 0.327655
v 1.951629 0.008677 0.352345
v 0.308371 0.008677 0.352345
vt 1.000000 0.000000
vt 0.000000 0.000000
vt 0.000000 1.000000
vt 1.000000 1.000000
vn 0.0000 -1.0000 0.0000
usemtl Material.011
s off
f 189/188/3 188/189/3 190/190/3
f 189/188/3 190/190/3 191/191/3
o yello_line_part.001_Plane.013
v 0.004046 0.008677 -1.470690
v -0.024046 0.008677 -1.470690
v 0.004046 0.008677 0.090690
v -0.024046 0.008677 0.090690
vt 1.000000 0.000000
vt 0.000000 0.000000
vt 0.000000 1.000000
vt 1.000000 1.000000
vn 0.0000 -1.0000 0.0000
usemtl Material.013
s off
f 193/192/4 192/193/4 194/194/4
f 193/192/4 194/194/4 195/195/4
o yello_line_part.002_Plane.014
v 0.004656 0.008677 0.582682
v -0.024656 0.008677 0.582682
v 0.004656 0.008677 1.237317
v -0.024656 0.008677 1.237317
vt 1.000000 0.000000
vt 0.000000 0.000000
vt 0.000000 1.000000
vt 1.000000 1.000000
vn 0.0000 -1.0000 0.0000
usemtl Material.014
s off
f 197/196/5 196/197/5 198/198/5
f 197/196/5 198/198/5 199/199/5
o yello_line_part.004_Plane.016
v -0.332423 0.008677 0.327655
v -2.207577 0.008677 0.327655
v -0.332423 0.008677 0.352345
v -2.207577 0.008677 0.352345
vt 1.000000 0.000000
vt 0.000000 0.000000
vt 0.000000 1.000000
vt 1.000000 1.000000
vn 0.0000 -1.0000 0.0000
usemtl Material.016
s off
f 201/200/6 200/201/6 202/202/6
f 201/200/6 202/202/6 203/203/6
o yello_line_part.005_Plane.017
v 2.130353 0.008677 -1.472346
v -2.190353 0.008677 -1.472346
v 2.130353 0.008677 -1.447654
v -2.190353 0.008677 -1.447654
vt 1.000000 0.000000
vt 0.000000 0.000000
vt 0.000000 1.000000
vt 1.000000 1.000000
vn 0.0000 -1.0000 0.0000
usemtl Material.017
s off
f 205/204/7 204/205/7 206/206/7
f 205/204/7 206/206/7 207/207/7
o yello_line_part.006_Plane.018
v 2.130353 0.008677 1.457654
v -2.190353 0.008677 1.457654
v 2.130353 0.008677 1.482346
v -2.190353 0.008677 1.482346
vt 1.000000 0.000000
vt 0.000000 0.000000
vt 0.000000 1.000000
vt 1.000000 1.000000
vn 0.0000 -1.0000 0.0000
usemtl Material.018
s off
f 209/208/8 208/209/8 210/210/8
f 209/208/8 210/210/8 211/211/8
o yello_line_part.007_Plane.019
v -2.265954 0.008677 -1.331687
v -2.294046 0.008677 -1.331687
v -2.265954 0.008677 0.211687
v -2.294046 0.008677 0.211687
vt 1.000000 0.000000
vt 0.000000 0.000000
vt 0.000000 1.000000
vt 1.000000 1.000000
vn 0.0000 -1.0000 0.0000
usemtl Material.019
s off
f 213/212/9 212/213/9 214/214/9
f 213/212/9 214/214/9 215/215/9
o yello_line_part.008_Plane.020
v 2.275044 0.008677 -1.355087
v 2.244956 0.008677 -1.355087
v 2.275044 0.008677 0.115087
v 2.244956 0.008677 0.115087
vt 1.000000 0.000000
vt 0.000000 0.000000
vt 0.000000 1.000000
vt 1.000000 1.000000
vn 0.0000 -1.0000 0.0000
usemtl Material.020
s off
f 217/216/10 216/217/10 218/218/10
f 217/216/10 218/218/10 219/219/10
o yello_line_part.009_Plane.021
v -2.265344 0.008677 0.585145
v -2.294656 0.008677 0.585145
v -2.265344 0.008677 1.374855
v -2.294656 0.008677 1.374855
vt 1.000000 0.000000
vt 0.000000 0.000000
vt 0.000000 1.000000
vt 1.000000 1.000000
vn 0.0000 -1.0000 0.0000
usemtl Material.021
s off
f 221/220/11 220/221/11 222/222/11
f 221/220/11 222/222/11 223/223/11
o yello_line_part.010_Plane.022
v 2.264657 0.008677 0.585145
v 2.235344 0.008677 0.585145
v 2.264657 0.008677 1.374855
v 2.235344 0.008677 1.374855
vt 1.000000 0.000000
vt 0.000000 0.000000
vt 0.000000 1.000000
vt 1.000000 1.000000
vn 0.0000 -1.0000 0.0000
usemtl Material.022
s off
f 225/224/12 224/225/12 226/226/12
f 225/224/12 226/226/12 227/227/12
